<svg xmlns="http://www.w3.org/2000/svg" width="800" height="500" viewBox="0 0 800 500">
  <defs>
    <linearGradient id="pt" x1="0" y1="0" x2="1" y2="1">
      <stop offset="0" stop-color="#7c3aed"/>
      <stop offset="1" stop-color="#c084fc"/>
    </linearGradient>
  </defs>
  <rect width="800" height="500" fill="url(#pt)"/>
  <!-- старший мастер -->
  <g transform="translate(235,115)">
    <circle cx="60" cy="46" r="44" fill="#fff" fill-opacity=".92"/>
    <rect x="0" y="100" width="120" height="152" rx="38" fill="#fff" fill-opacity=".85"/>
  </g>
  <!-- гаечный ключ -->
  <g transform="translate(392,205) rotate(28)" fill="#fff" fill-opacity=".95">
    <rect x="-12" y="-28" width="24" height="112" rx="12"/>
    <path d="M-27 -38 A27 27 0 1 1 27 -38 L15 -14 H-15 Z"/>
    <circle cx="0" cy="-42" r="10" fill="url(#pt)"/>
  </g>
  <!-- мастер -->
  <g transform="translate(445,150)">
    <circle cx="50" cy="40" r="38" fill="#fff" fill-opacity=".75"/>
    <rect x="0" y="88" width="100" height="128" rx="32" fill="#fff" fill-opacity=".65"/>
  </g>
  <rect x="120" y="330" width="560" height="14" rx="7" fill="#fff" opacity=".5"/>
  <rect x="190" y="370" width="420" height="14" rx="7" fill="#fff" opacity=".3"/>
  <text x="400" y="450" text-anchor="middle" font-family="Arial, sans-serif" font-size="38" font-weight="700" fill="#fff">Команда проекта</text>
</svg>
